<?xml version="1.0" encoding="UTF-8" standalone="no"?>
<!-- Created with Inkscape (http://www.inkscape.org/) -->

<svg
   version="1.1"
   id="svg2"
   width="337.39767"
   height="33.983631"
   viewBox="0 0 337.39767 33.983631"
   xmlns="http://www.w3.org/2000/svg"
   xmlns:svg="http://www.w3.org/2000/svg">
  <defs
     id="defs6" />
  <g
     id="g8"
     transform="translate(-277.04825,-74.487723)">
    <g
       id="g1277"
       transform="matrix(0.4,0,0,0.4,267.44825,54.887723)">
      <path
         style="fill:#494949;fill-opacity:1"
         d="m 646.26375,131.28242 c 1.52006,-0.22986 3.77006,-0.22371 5,0.0136 1.22994,0.23736 -0.0137,0.42542 -2.76375,0.41792 -2.75,-0.008 -3.75631,-0.20172 -2.23625,-0.43157 z m 93.98625,0.001 c 1.5125,-0.22913 3.9875,-0.22913 5.5,0 1.5125,0.22912 0.275,0.41659 -2.75,0.41659 -3.025,0 -4.2625,-0.18747 -2.75,-0.41659 z M 476,116.62244 c 0,-0.20765 0.7875,-0.99515 1.75,-1.75 1.58606,-1.24387 1.62143,-1.2085 0.37756,0.37756 C 476.82119,116.91575 476,117.44548 476,116.62244 Z M 856.15789,114 c 0,-1.375 0.22698,-1.9375 0.50439,-1.25 0.27741,0.6875 0.27741,1.8125 0,2.5 -0.27741,0.6875 -0.50439,0.125 -0.50439,-1.25 z M 252,110.72497 c 0,-0.15126 3.4875,-3.63876 7.75,-7.75 L 267.5,95.5 l -7.47497,7.75 C 253.08244,110.44803 252,111.45627 252,110.72497 Z M 858.26375,90.282419 c 1.52006,-0.229855 3.77006,-0.223712 5,0.01365 1.22994,0.237362 -0.0137,0.425424 -2.76375,0.417917 -2.75,-0.0075 -3.75631,-0.201713 -2.23625,-0.431567 z M 280.5,82 c 0.99549,-1.1 2.03498,-2 2.30998,-2 0.275,0 -0.31449,0.9 -1.30998,2 -0.99549,1.1 -2.03498,2 -2.30998,2 -0.275,0 0.31449,-0.9 1.30998,-2 z m -42.19806,-1.746128 c 5.39107,-0.180152 13.94107,-0.179366 19,0.0017 5.05893,0.181113 0.64806,0.32851 -9.80194,0.327549 -10.45,-9.61e-4 -14.58913,-0.149144 -9.19806,-0.329296 z M 25.761659,79.292739 c 1.243913,-0.239193 3.043913,-0.230112 4,0.02018 C 30.717747,79.563212 29.7,79.758916 27.5,79.747817 c -2.2,-0.0111 -2.982253,-0.215885 -1.738341,-0.455078 z"
         id="path1281" />
      <path
         style="fill:#333333;fill-opacity:1"
         d="m 828.72263,133.01999 c -10.29494,-1.85761 -18.18203,-9.57066 -19.4495,-19.02029 L 808.73666,110 h 5.63167 c 4.41947,0 5.63167,0.33356 5.63167,1.54966 0,12.13562 30.9578,16.4161 36.15946,4.9997 C 859.03569,110.23674 855.50449,108.21062 837,105.55611 818.45276,102.89548 812.6948,99.650004 811.17523,91 808.7455,77.168969 816.80931,69.779218 835.0125,69.155318 c 18.65633,-0.639431 28.42346,4.66094 29.71574,16.125955 l 0.50831,4.509747 -5.07349,0.35449 c -4.70931,0.329044 -5.11819,0.175035 -5.69619,-2.14551 -2.52734,-10.146795 -29.65484,-13.067889 -32.068,-3.453088 -1.58783,6.32643 0.70316,7.549244 20.3326,10.852479 20.42508,3.437123 24.77342,6.584579 24.76268,17.923939 -0.0141,14.94594 -17.07268,23.61199 -38.77152,19.69666 z m -523.20654,-1.68811 c -12.63408,-3.8755 -17.78652,-14.50772 -12.26609,-25.31145 3.7759,-7.389601 9.58165,-9.880599 28.24684,-12.119511 14.98984,-1.798048 19.94031,-5.91831 14.11269,-11.745936 C 333.11986,79.665315 332.38,79.5 323.72727,79.5 311.58344,79.5 305.25745,82.93222 304.73998,89.801719 304.59187,91.768031 304.01647,92 299.2872,92 H 294 l 0.022,-3.25 c 0.0883,-13.069805 11.71121,-20.328521 31.3576,-19.583426 20.45909,0.775917 22.98097,4.235894 23.46244,32.190026 l 0.34199,19.8566 2.95976,-0.59195 2.95975,-0.59195 -0.30175,5.23535 L 354.5,130.5 l -5.34095,0.30541 C 343.46966,131.13075 339,129.22636 339,126.47695 c 0,-1.99001 -0.41002,-1.89576 -5.0177,1.15346 -7.52606,4.98051 -19.30395,6.51199 -28.46621,3.70147 z m 21.47026,-10.99056 C 333.9617,117.46668 338,111.81702 338,104.93303 c 0,-3.84687 -0.1725,-4.11637 -2.25,-3.51512 -1.2375,0.35815 -7.23621,1.51777 -13.33047,2.57693 C 306.48189,106.76475 302,108.86075 302,113.5442 c 0,7.82377 13.55059,11.50998 24.98635,6.79712 z m 129.13441,11.46592 C 433.75355,128.36442 422.78961,105.13594 433.52875,83.943264 441.36177,68.485546 465.82919,63.640465 480.75,74.59243 L 483,76.243944 V 62.621972 49 h 5.5 5.5 v 41 41 h -5.5 c -5.44444,0 -5.5,-0.0303 -5.5,-3 0,-3.23524 -1.06899,-3.82672 -2.90904,-1.6096 -3.42841,4.13098 -15.13584,6.77665 -23.9702,5.41684 z m 12.59509,-10.96591 c 18.0023,-4.53303 19.45363,-33.022997 2.05262,-40.293602 -8.05665,-3.366285 -19.18331,-1.102964 -24.95485,5.076173 -9.56577,10.241317 -4.53114,32.208109 8.01345,34.963859 1.47011,0.32295 3.12293,0.73729 3.67293,0.92076 2.14958,0.71706 6.8224,0.43909 11.21585,-0.66719 z m 54.54812,10.35429 C 508.42662,125.25646 500.95269,110.8049 504.00713,93.960656 507.08619,76.980662 517.74762,68.507636 536,68.534742 c 19.00504,0.02822 30.36986,10.094046 31.73203,28.105058 L 568.28868,104 H 541.51934 514.75 l 0.62706,3.1353 c 3.41282,17.06411 29.82563,21.14869 37.64495,5.82156 C 555.02953,109.02178 555.07318,109 560.95052,109 h 5.90987 l -0.82542,2.87808 c -4.79908,16.7334 -25.67356,26.16137 -42.771,19.31754 z M 556,92.886155 c 0,-0.612616 -0.9209,-2.750116 -2.04645,-4.75 -7.65645,-13.604083 -31.42719,-12.213511 -37.44559,2.190542 L 514.97316,94 h 20.51342 C 549.8933,94 556,93.668416 556,92.886155 Z m 121.8448,38.628555 c -11.48761,-4.22511 -15.94868,-14.97305 -10.5948,-25.52578 3.18303,-6.273906 8.14359,-8.503272 24.45637,-10.991143 18.19176,-2.774437 21.20992,-4.210865 19.89081,-9.466612 -2.77196,-11.044356 -30.52123,-7.25942 -33.10749,4.515785 C 677.87849,92.829707 677.55734,93 672.92054,93 H 668 l 0.022,-3.75 c 0.0901,-15.378321 19.2682,-24.232447 40.50595,-18.700714 12.29775,3.203156 13.83938,6.577715 14.29927,31.300484 l 0.35994,19.34977 2.90644,-0.42658 c 2.89457,-0.42484 2.9064,-0.40515 2.9064,4.83896 v 5.26553 l -4.51378,0.67689 c -5.63262,0.84466 -10.28558,-0.90676 -11.10735,-4.18093 -0.73946,-2.94624 -0.91405,-2.94232 -4.53193,0.10193 -6.02162,5.06685 -22.40474,7.20146 -31.00214,4.03937 z m 24.39822,-11.38573 c 6.2558,-3.03442 9.00124,-7.02924 9.57352,-13.93022 0.3231,-3.89613 0.12968,-5.28356 -0.66783,-4.79067 -0.61746,0.38161 -7.09102,1.76318 -14.38568,3.07015 C 678.34918,107.7774 676,108.87766 676,114.20274 c 0,8.15749 14.76779,11.49237 26.24302,5.92624 z m 57.97877,11.46118 c -2.35302,-0.7677 -5.84052,-2.58745 -7.75,-4.04388 L 749,124.89822 l 10e-4,3.30089 10e-4,3.30089 -5.50137,-0.34255 L 738,130.8149 V 89.90745 49 h 5.5 5.5 v 13.5 c 0,14.413558 0.0205,14.490416 3.10466,11.617123 8.9926,-8.377887 32.77983,-5.846339 41.8208,4.450766 21.70554,24.721241 -2.71146,63.133821 -33.70367,53.022271 z m 19.31958,-11.46982 c 17.23534,-7.82893 14.51248,-34.925583 -4.03129,-40.117519 -14.23977,-3.986887 -26.43498,5.579971 -26.48812,20.779299 -0.0583,16.67927 15.15346,26.318 30.51941,19.33822 z M 24.64986,130.75 C 25.072202,130.0625 36.34876,113.82521 49.708877,94.667143 63.068995,75.509072 74,59.646572 74,59.417143 74,59.187715 67.560279,59 59.689508,59 H 45.379017 L 38.549499,69 C 31.883884,78.760007 31.627343,79 27.85999,79 H 24 V 65.5 52 H 63.559017 C 94.942889,52 102.96175,52.258321 102.3618,53.25 101.94587,53.9375 90.894314,69.860187 77.802783,88.633749 64.711252,107.40731 54,123.04481 54,123.38375 c 0,0.33894 6.4125,0.6002 14.25,0.58059 l 14.25,-0.0357 6.802599,-9.96434 C 95.984398,104.17695 96.175296,104 100.0526,104 H 104 v 14 14 H 63.940983 C 32.150892,132 24.040474,131.74198 24.64986,130.75 Z M 111,118 v -14 h 3.82181 c 3.7117,0 4.0214,0.28782 10.75,9.99012 l 6.92819,9.99013 14.25,0.01 c 7.8375,0.005 14.25,-0.1831 14.25,-0.41897 C 161,123.33528 149.975,107.32826 136.5,88 123.025,68.671738 112,52.664722 112,52.428853 c 0,-0.235869 5.2875,-0.414914 11.75,-0.397878 l 11.75,0.03098 21,30.196415 c 11.55,16.608028 24.052,34.59408 27.78223,39.96903 L 191.06445,132 H 151.03223 111 Z M 643,90.25 V 49 h 5.5 5.5 v 41.25 41.25 h -5.5 -5.5 z m -416,35.99062 v -4.75937 L 247,101.5 C 258,90.510314 267,81.177034 267,80.759376 267,80.341719 258.45,80 248,80 h -19 v -5 -5 h 27 27 v 4.759376 4.759377 L 263,99.5 c -11,10.98969 -20,20.32297 -20,20.74062 0,0.41766 9.45,0.75938 21,0.75938 h 21 v 5 5 H 256 227 Z M 364,100.5 V 70 h 4.93963 c 4.91902,0 4.94094,0.0146 5.25,3.49826 l 0.31037,3.49826 4.43052,-2.941826 c 13.26143,-8.80546 33.12555,-6.047982 39.01559,5.416027 2.48681,4.840165 2.56291,5.582153 2.89745,28.249999 L 421.18713,131 H 415.59356 410 l -0.0768,-19.75 C 409.81635,83.802827 407.75403,78.991457 396.10212,79.005577 378.42805,79.026995 374,86.026499 374,113.94282 V 131 h -5 -5 z m 213,0 V 70 h 5.5 c 4.83333,0 5.5,0.242424 5.5,2 0,2.16541 1.4637,2.676764 2.56435,0.895873 2.32757,-3.766081 13.22312,-5.911727 19.28643,-3.798048 2.99766,1.04499 3.14922,1.352702 3.14922,6.39367 v 5.295845 l -3.97656,-1.009359 c -5.53101,-1.40392 -10.43443,-0.234037 -14.69378,3.50572 C 588.49252,88.408778 588,90.640749 588,111.96788 V 131 h -5.5 -5.5 z"
         id="path1279" />
    </g>
  </g>
</svg>
